<svg width="37" height="41" viewBox="0 0 37 41" fill="none" xmlns="http://www.w3.org/2000/svg">
<path d="M35.8078 16.7639L19.9596 0.606514C19.7685 0.41433 19.5411 0.26179 19.2906 0.157692C19.0401 0.0535947 18.7715 0 18.5001 0C18.2288 0 17.9601 0.0535947 17.7096 0.157692C17.4591 0.26179 17.2318 0.41433 17.0407 0.606514L1.19245 16.7844C0.808963 17.17 0.506095 17.6278 0.301432 18.1312C0.0967684 18.6345 -0.00561117 19.1734 0.000237136 19.7165V36.8991C-0.00135555 37.9488 0.400602 38.9591 1.12333 39.722C1.84606 40.4849 2.83454 40.9423 3.88521 41H33.115C34.1657 40.9423 35.1542 40.4849 35.8769 39.722C36.5996 38.9591 37.0016 37.9488 37 36.8991V19.7165C37.0016 18.6153 36.5741 17.5566 35.8078 16.7639ZM14.389 36.8991V24.5966H22.6112V36.8991H14.389ZM32.8889 36.8991H26.7223V22.5461C26.7223 22.0023 26.5057 21.4808 26.1202 21.0963C25.7347 20.7117 25.2119 20.4957 24.6667 20.4957H12.3335C11.7883 20.4957 11.2655 20.7117 10.88 21.0963C10.4945 21.4808 10.2779 22.0023 10.2779 22.5461V36.8991H4.11132V19.6345L18.5001 4.97393L32.8889 19.7165V36.8991Z" fill="#003366"/>
</svg>
